<svg id="SvgjsSvg1006" width="1875.34375" height="507.328125" xmlns="http://www.w3.org/2000/svg" version="1.1" xmlns:xlink="http://www.w3.org/1999/xlink" xmlns:svgjs="http://svgjs.com/svgjs"><defs id="SvgjsDefs1007"><marker id="SvgjsMarker1080" markerWidth="16" markerHeight="12" refX="16" refY="6" viewBox="0 0 16 12" orient="auto" markerUnits="userSpaceOnUse" stroke-dasharray="0,0"><path id="SvgjsPath1081" d="M0,2 L14,6 L0,11 L0,2" fill="#323232" stroke="#323232" stroke-width="2"></path></marker><marker id="SvgjsMarker1084" markerWidth="16" markerHeight="12" refX="16" refY="6" viewBox="0 0 16 12" orient="auto" markerUnits="userSpaceOnUse" stroke-dasharray="0,0"><path id="SvgjsPath1085" d="M0,2 L14,6 L0,11 L0,2" fill="#323232" stroke="#323232" stroke-width="2"></path></marker><marker id="SvgjsMarker1088" markerWidth="16" markerHeight="12" refX="16" refY="6" viewBox="0 0 16 12" orient="auto" markerUnits="userSpaceOnUse" stroke-dasharray="0,0"><path id="SvgjsPath1089" d="M0,2 L14,6 L0,11 L0,2" fill="#323232" stroke="#323232" stroke-width="2"></path></marker><marker id="SvgjsMarker1092" markerWidth="16" markerHeight="12" refX="16" refY="6" viewBox="0 0 16 12" orient="auto" markerUnits="userSpaceOnUse" stroke-dasharray="0,0"><path id="SvgjsPath1093" d="M0,2 L14,6 L0,11 L0,2" fill="#323232" stroke="#323232" stroke-width="2"></path></marker><marker id="SvgjsMarker1158" markerWidth="16" markerHeight="12" refX="16" refY="6" viewBox="0 0 16 12" orient="auto" markerUnits="userSpaceOnUse" stroke-dasharray="0,0"><path id="SvgjsPath1159" d="M0,2 L14,6 L0,11 L0,2" fill="#323232" stroke="#323232" stroke-width="2"></path></marker><marker id="SvgjsMarker1162" markerWidth="16" markerHeight="12" refX="16" refY="6" viewBox="0 0 16 12" orient="auto" markerUnits="userSpaceOnUse" stroke-dasharray="0,0"><path id="SvgjsPath1163" d="M0,2 L14,6 L0,11 L0,2" fill="#323232" stroke="#323232" stroke-width="2"></path></marker><marker id="SvgjsMarker1166" markerWidth="16" markerHeight="12" refX="16" refY="6" viewBox="0 0 16 12" orient="auto" markerUnits="userSpaceOnUse" stroke-dasharray="0,0"><path id="SvgjsPath1167" d="M0,2 L14,6 L0,11 L0,2" fill="#323232" stroke="#323232" stroke-width="2"></path></marker><marker id="SvgjsMarker1170" markerWidth="16" markerHeight="12" refX="16" refY="6" viewBox="0 0 16 12" orient="auto" markerUnits="userSpaceOnUse" stroke-dasharray="0,0"><path id="SvgjsPath1171" d="M0,2 L14,6 L0,11 L0,2" fill="#323232" stroke="#323232" stroke-width="2"></path></marker><marker id="SvgjsMarker1284" markerWidth="16" markerHeight="12" refX="16" refY="6" viewBox="0 0 16 12" orient="auto" markerUnits="userSpaceOnUse" stroke-dasharray="0,0"><path id="SvgjsPath1285" d="M0,2 L14,6 L0,11 L0,2" fill="#323232" stroke="#323232" stroke-width="2"></path></marker><marker id="SvgjsMarker1288" markerWidth="16" markerHeight="12" refX="16" refY="6" viewBox="0 0 16 12" orient="auto" markerUnits="userSpaceOnUse" stroke-dasharray="0,0"><path id="SvgjsPath1289" d="M0,2 L14,6 L0,11 L0,2" fill="#323232" stroke="#323232" stroke-width="2"></path></marker><marker id="SvgjsMarker1292" markerWidth="16" markerHeight="12" refX="16" refY="6" viewBox="0 0 16 12" orient="auto" markerUnits="userSpaceOnUse" stroke-dasharray="0,0"><path id="SvgjsPath1293" d="M0,2 L14,6 L0,11 L0,2" fill="#323232" stroke="#323232" stroke-width="2"></path></marker><marker id="SvgjsMarker1296" markerWidth="16" markerHeight="12" refX="16" refY="6" viewBox="0 0 16 12" orient="auto" markerUnits="userSpaceOnUse" stroke-dasharray="0,0"><path id="SvgjsPath1297" d="M0,2 L14,6 L0,11 L0,2" fill="#323232" stroke="#323232" stroke-width="2"></path></marker><marker id="SvgjsMarker1300" markerWidth="16" markerHeight="12" refX="16" refY="6" viewBox="0 0 16 12" orient="auto" markerUnits="userSpaceOnUse" stroke-dasharray="0,0"><path id="SvgjsPath1301" d="M0,2 L14,6 L0,11 L0,2" fill="#323232" stroke="#323232" stroke-width="2"></path></marker><marker id="SvgjsMarker1310" markerWidth="16" markerHeight="12" refX="16" refY="6" viewBox="0 0 16 12" orient="auto" markerUnits="userSpaceOnUse" stroke-dasharray="0,0"><path id="SvgjsPath1311" d="M0,2 L14,6 L0,11 L0,2" fill="#323232" stroke="#323232" stroke-width="2"></path></marker><marker id="SvgjsMarker1320" markerWidth="16" markerHeight="12" refX="16" refY="6" viewBox="0 0 16 12" orient="auto" markerUnits="userSpaceOnUse" stroke-dasharray="0,0"><path id="SvgjsPath1321" d="M0,2 L14,6 L0,11 L0,2" fill="#323232" stroke="#323232" stroke-width="2"></path></marker><marker id="SvgjsMarker1330" markerWidth="16" markerHeight="12" refX="16" refY="6" viewBox="0 0 16 12" orient="auto" markerUnits="userSpaceOnUse" stroke-dasharray="0,0"><path id="SvgjsPath1331" d="M0,2 L14,6 L0,11 L0,2" fill="#323232" stroke="#323232" stroke-width="2"></path></marker></defs><g id="SvgjsG1008" transform="translate(25,41.734375)"><path id="SvgjsPath1009" d="M 0 4Q 0 0 4 0L 241 0Q 245 0 245 4L 245 85Q 245 89 241 89L 4 89Q 0 89 0 85Z" stroke="rgba(50,50,50,1)" stroke-width="2" fill-opacity="1" fill="#ffffff"></path><g id="SvgjsG1010"><text id="SvgjsText1011" font-family="微软雅黑" text-anchor="middle" font-size="13px" width="225px" fill="#323232" font-weight="700" align="top" anchor="middle" family="微软雅黑" size="13px" weight="700" font-style="" opacity="1" y="-1.95" transform="rotate(0)"><tspan id="SvgjsTspan1012" dy="16" x="122.5"><tspan id="SvgjsTspan1013" style="text-decoration:;">f1km_sk_v3_bm.hex</tspan></tspan></text></g></g><g id="SvgjsG1014" transform="translate(25,62.734375)"><path id="SvgjsPath1015" d="M 0 4Q 0 0 4 0L 241 0Q 245 0 245 4L 245 65Q 245 69 241 69L 4 69Q 0 69 0 65Z" stroke="rgba(50,50,50,1)" stroke-width="2" fill-opacity="1" fill="#ffffff"></path><g id="SvgjsG1016"><text id="SvgjsText1017" font-family="微软雅黑" text-anchor="start" font-size="13px" width="225px" fill="#323232" font-weight="400" align="middle" anchor="start" family="微软雅黑" size="13px" weight="400" font-style="" opacity="1" y="8.55" transform="rotate(0)"><tspan id="SvgjsTspan1018" dy="16" x="10"><tspan id="SvgjsTspan1019" style="text-decoration:;">Addr :0x00000000</tspan></tspan><tspan id="SvgjsTspan1020" dy="16" x="10"><tspan id="SvgjsTspan1021" style="text-decoration:;"> </tspan></tspan><tspan id="SvgjsTspan1022" dy="16" x="10"><tspan id="SvgjsTspan1023" style="text-decoration:;">Len : 0x00020000</tspan></tspan></text></g></g><g id="SvgjsG1024" transform="translate(25,144.734375)"><path id="SvgjsPath1025" d="M 0 4Q 0 0 4 0L 241 0Q 245 0 245 4L 245 85Q 245 89 241 89L 4 89Q 0 89 0 85Z" stroke="rgba(50,50,50,1)" stroke-width="2" fill-opacity="1" fill="#ffffff"></path><g id="SvgjsG1026"><text id="SvgjsText1027" font-family="微软雅黑" text-anchor="middle" font-size="13px" width="225px" fill="#323232" font-weight="700" align="top" anchor="middle" family="微软雅黑" size="13px" weight="700" font-style="" opacity="1" y="-1.95" transform="rotate(0)"><tspan id="SvgjsTspan1028" dy="16" x="122.5"><tspan id="SvgjsTspan1029" style="text-decoration:;">FirmwareA/f1km_sk_v3_ghs.hex</tspan></tspan></text></g></g><g id="SvgjsG1030" transform="translate(25,168.734375)"><path id="SvgjsPath1031" d="M 0 4Q 0 0 4 0L 241 0Q 245 0 245 4L 245 65Q 245 69 241 69L 4 69Q 0 69 0 65Z" stroke="rgba(50,50,50,1)" stroke-width="2" fill-opacity="1" fill="#ffffff"></path><g id="SvgjsG1032"><text id="SvgjsText1033" font-family="微软雅黑" text-anchor="start" font-size="13px" width="225px" fill="#323232" font-weight="400" align="middle" anchor="start" family="微软雅黑" size="13px" weight="400" font-style="" opacity="1" y="8.55" transform="rotate(0)"><tspan id="SvgjsTspan1034" dy="16" x="10"><tspan id="SvgjsTspan1035" style="text-decoration:;">Addr :0x00020000</tspan></tspan><tspan id="SvgjsTspan1036" dy="16" x="10"><tspan id="SvgjsTspan1037" style="text-decoration:;"> </tspan></tspan><tspan id="SvgjsTspan1038" dy="16" x="10"><tspan id="SvgjsTspan1039" style="text-decoration:;">Len : 0x1B0000</tspan></tspan></text></g></g><g id="SvgjsG1040" transform="translate(25,245.734375)"><path id="SvgjsPath1041" d="M 0 4Q 0 0 4 0L 241 0Q 245 0 245 4L 245 85Q 245 89 241 89L 4 89Q 0 89 0 85Z" stroke="rgba(50,50,50,1)" stroke-width="2" fill-opacity="1" fill="#ffffff"></path><g id="SvgjsG1042"><text id="SvgjsText1043" font-family="微软雅黑" text-anchor="middle" font-size="13px" width="225px" fill="#323232" font-weight="700" align="top" anchor="middle" family="微软雅黑" size="13px" weight="700" font-style="" opacity="1" y="-1.95" transform="rotate(0)"><tspan id="SvgjsTspan1044" dy="16" x="122.5"><tspan id="SvgjsTspan1045" style="text-decoration:;">FirmwareB/f1km_sk_v3_bm.hex</tspan></tspan></text></g></g><g id="SvgjsG1046" transform="translate(25,266.734375)"><path id="SvgjsPath1047" d="M 0 4Q 0 0 4 0L 241 0Q 245 0 245 4L 245 65Q 245 69 241 69L 4 69Q 0 69 0 65Z" stroke="rgba(50,50,50,1)" stroke-width="2" fill-opacity="1" fill="#ffffff"></path><g id="SvgjsG1048"><text id="SvgjsText1049" font-family="微软雅黑" text-anchor="start" font-size="13px" width="225px" fill="#323232" font-weight="400" align="middle" anchor="start" family="微软雅黑" size="13px" weight="400" font-style="" opacity="1" y="8.55" transform="rotate(0)"><tspan id="SvgjsTspan1050" dy="16" x="10"><tspan id="SvgjsTspan1051" style="text-decoration:;">Addr :0x00200000</tspan></tspan><tspan id="SvgjsTspan1052" dy="16" x="10"><tspan id="SvgjsTspan1053" style="text-decoration:;"> </tspan></tspan><tspan id="SvgjsTspan1054" dy="16" x="10"><tspan id="SvgjsTspan1055" style="text-decoration:;">Len : 0x1B0000</tspan></tspan></text></g></g><g id="SvgjsG1056" transform="translate(25,362.734375)"><path id="SvgjsPath1057" d="M 0 4Q 0 0 4 0L 241 0Q 245 0 245 4L 245 85Q 245 89 241 89L 4 89Q 0 89 0 85Z" stroke="rgba(50,50,50,1)" stroke-width="2" fill-opacity="1" fill="#ffffff"></path><g id="SvgjsG1058"><text id="SvgjsText1059" font-family="微软雅黑" text-anchor="middle" font-size="13px" width="225px" fill="#323232" font-weight="700" align="top" anchor="middle" family="微软雅黑" size="13px" weight="700" font-style="" opacity="1" y="-1.95" transform="rotate(0)"><tspan id="SvgjsTspan1060" dy="16" x="122.5"><tspan id="SvgjsTspan1061" style="text-decoration:;">vHsm.hex</tspan></tspan></text></g></g><g id="SvgjsG1062" transform="translate(25,386.1771428707513)"><path id="SvgjsPath1063" d="M 0 4Q 0 0 4 0L 241 0Q 245 0 245 4L 245 65Q 245 69 241 69L 4 69Q 0 69 0 65Z" stroke="rgba(50,50,50,1)" stroke-width="2" fill-opacity="1" fill="#ffffff"></path><g id="SvgjsG1064"><text id="SvgjsText1065" font-family="微软雅黑" text-anchor="start" font-size="13px" width="225px" fill="#323232" font-weight="400" align="middle" anchor="start" family="微软雅黑" size="13px" weight="400" font-style="" opacity="1" y="8.55" transform="rotate(0)"><tspan id="SvgjsTspan1066" dy="16" x="10"><tspan id="SvgjsTspan1067" style="text-decoration:;">Addr :0x003B0000</tspan></tspan><tspan id="SvgjsTspan1068" dy="16" x="10"><tspan id="SvgjsTspan1069" style="text-decoration:;"> </tspan></tspan><tspan id="SvgjsTspan1070" dy="16" x="10"><tspan id="SvgjsTspan1071" style="text-decoration:;">Len : 0x40000</tspan></tspan></text></g></g><g id="SvgjsG1072" transform="translate(370.8333333333333,207.234375)"><path id="SvgjsPath1073" d="M 0 4Q 0 0 4 0L 179.33333333333331 0Q 183.33333333333331 0 183.33333333333331 4L 183.33333333333331 65Q 183.33333333333331 69 179.33333333333331 69L 4 69Q 0 69 0 65Z" stroke="rgba(50,50,50,1)" stroke-width="2" fill-opacity="1" fill="#ffffff"></path><g id="SvgjsG1074"><text id="SvgjsText1075" font-family="微软雅黑" text-anchor="middle" font-size="13px" width="164px" fill="#323232" font-weight="700" align="middle" anchor="middle" family="微软雅黑" size="13px" weight="700" font-style="" opacity="1" y="24.55" transform="rotate(0)"><tspan id="SvgjsTspan1076" dy="16" x="92"><tspan id="SvgjsTspan1077" style="text-decoration:;">Release.py</tspan></tspan></text></g></g><g id="SvgjsG1078"><path id="SvgjsPath1079" d="M270 97.234375L320.41666666666663 97.234375L320.41666666666663 241.734375L370.8333333333333 241.734375" stroke="#323232" stroke-width="2" fill="none" marker-end="url(#SvgjsMarker1080)"></path></g><g id="SvgjsG1082"><path id="SvgjsPath1083" d="M270 203.234375L320.41666666666663 203.234375L320.41666666666663 241.734375L370.8333333333333 241.734375" stroke="#323232" stroke-width="2" fill="none" marker-end="url(#SvgjsMarker1084)"></path></g><g id="SvgjsG1086"><path id="SvgjsPath1087" d="M270 301.234375L319.8333333333333 301.234375L319.8333333333333 241.734375L370.8333333333333 241.734375" stroke="#323232" stroke-width="2" fill="none" marker-end="url(#SvgjsMarker1088)"></path></g><g id="SvgjsG1090"><path id="SvgjsPath1091" d="M270 420.6771428707513L320.41666666666663 420.6771428707513L320.41666666666663 241.734375L370.8333333333333 241.734375" stroke="#323232" stroke-width="2" fill="none" marker-end="url(#SvgjsMarker1092)"></path></g><g id="SvgjsG1094" transform="translate(686,41.734375)"><path id="SvgjsPath1095" d="M 0 4Q 0 0 4 0L 241 0Q 245 0 245 4L 245 85Q 245 89 241 89L 4 89Q 0 89 0 85Z" stroke="rgba(50,50,50,1)" stroke-width="2" fill-opacity="1" fill="#ffffff"></path><g id="SvgjsG1096"><text id="SvgjsText1097" font-family="微软雅黑" text-anchor="middle" font-size="13px" width="225px" fill="#323232" font-weight="700" align="top" anchor="middle" family="微软雅黑" size="13px" weight="700" font-style="" opacity="1" y="-1.95" transform="rotate(0)"><tspan id="SvgjsTspan1098" dy="16" x="122.5"><tspan id="SvgjsTspan1099" style="text-decoration:;">BootManage_Cmac.bin</tspan></tspan></text></g></g><g id="SvgjsG1100" transform="translate(686,62.734375000000014)"><path id="SvgjsPath1101" d="M 0 4Q 0 0 4 0L 241 0Q 245 0 245 4L 245 65Q 245 69 241 69L 4 69Q 0 69 0 65Z" stroke="rgba(50,50,50,1)" stroke-width="2" fill-opacity="1" fill="#ffffff"></path><g id="SvgjsG1102"><text id="SvgjsText1103" font-family="微软雅黑" text-anchor="start" font-size="13px" width="225px" fill="#323232" font-weight="400" align="middle" anchor="start" family="微软雅黑" size="13px" weight="400" font-style="" opacity="1" y="8.55" transform="rotate(0)"><tspan id="SvgjsTspan1104" dy="16" x="10"><tspan id="SvgjsTspan1105" style="text-decoration:;">Addr :0x00000000</tspan></tspan><tspan id="SvgjsTspan1106" dy="16" x="10"><tspan id="SvgjsTspan1107" style="text-decoration:;">Len : 0x00020000</tspan></tspan><tspan id="SvgjsTspan1108" dy="16" x="10"><tspan id="SvgjsTspan1109" style="text-decoration:;">Cmac Addr : 0x0001FFF0</tspan></tspan></text></g></g><g id="SvgjsG1110" transform="translate(686,144.734375)"><path id="SvgjsPath1111" d="M 0 4Q 0 0 4 0L 241 0Q 245 0 245 4L 245 85Q 245 89 241 89L 4 89Q 0 89 0 85Z" stroke="rgba(50,50,50,1)" stroke-width="2" fill-opacity="1" fill="#ffffff"></path><g id="SvgjsG1112"><text id="SvgjsText1113" font-family="微软雅黑" text-anchor="middle" font-size="13px" width="225px" fill="#323232" font-weight="700" align="top" anchor="middle" family="微软雅黑" size="13px" weight="700" font-style="" opacity="1" y="-1.95" transform="rotate(0)"><tspan id="SvgjsTspan1114" dy="16" x="122.5"><tspan id="SvgjsTspan1115" style="text-decoration:;">FirmwareA_Cmac.bin</tspan></tspan></text></g></g><g id="SvgjsG1116" transform="translate(686,168.734375)"><path id="SvgjsPath1117" d="M 0 4Q 0 0 4 0L 241 0Q 245 0 245 4L 245 65Q 245 69 241 69L 4 69Q 0 69 0 65Z" stroke="rgba(50,50,50,1)" stroke-width="2" fill-opacity="1" fill="#ffffff"></path><g id="SvgjsG1118"><text id="SvgjsText1119" font-family="微软雅黑" text-anchor="start" font-size="13px" width="225px" fill="#323232" font-weight="400" align="middle" anchor="start" family="微软雅黑" size="13px" weight="400" font-style="" opacity="1" y="8.55" transform="rotate(0)"><tspan id="SvgjsTspan1120" dy="16" x="10"><tspan id="SvgjsTspan1121" style="text-decoration:;">Addr :0x00020000</tspan></tspan><tspan id="SvgjsTspan1122" dy="16" x="10"><tspan id="SvgjsTspan1123" style="text-decoration:;">Len : 0x1B0000</tspan></tspan><tspan id="SvgjsTspan1124" dy="16" x="10"><tspan id="SvgjsTspan1125" style="text-decoration:;">Cmac Addr : 0x0001CFFF0</tspan></tspan></text></g></g><g id="SvgjsG1126" transform="translate(686,245.734375)"><path id="SvgjsPath1127" d="M 0 4Q 0 0 4 0L 241 0Q 245 0 245 4L 245 85Q 245 89 241 89L 4 89Q 0 89 0 85Z" stroke="rgba(50,50,50,1)" stroke-width="2" fill-opacity="1" fill="#ffffff"></path><g id="SvgjsG1128"><text id="SvgjsText1129" font-family="微软雅黑" text-anchor="middle" font-size="13px" width="225px" fill="#323232" font-weight="700" align="top" anchor="middle" family="微软雅黑" size="13px" weight="700" font-style="" opacity="1" y="-1.95" transform="rotate(0)"><tspan id="SvgjsTspan1130" dy="16" x="122.5"><tspan id="SvgjsTspan1131" style="text-decoration:;">FirmwareB_Cmac.bin</tspan></tspan></text></g></g><g id="SvgjsG1132" transform="translate(686,266.734375)"><path id="SvgjsPath1133" d="M 0 4Q 0 0 4 0L 241 0Q 245 0 245 4L 245 65Q 245 69 241 69L 4 69Q 0 69 0 65Z" stroke="rgba(50,50,50,1)" stroke-width="2" fill-opacity="1" fill="#ffffff"></path><g id="SvgjsG1134"><text id="SvgjsText1135" font-family="微软雅黑" text-anchor="start" font-size="13px" width="225px" fill="#323232" font-weight="400" align="middle" anchor="start" family="微软雅黑" size="13px" weight="400" font-style="" opacity="1" y="8.55" transform="rotate(0)"><tspan id="SvgjsTspan1136" dy="16" x="10"><tspan id="SvgjsTspan1137" style="text-decoration:;">Addr :0x00200000</tspan></tspan><tspan id="SvgjsTspan1138" dy="16" x="10"><tspan id="SvgjsTspan1139" style="text-decoration:;">Len : 0x1B0000</tspan></tspan><tspan id="SvgjsTspan1140" dy="16" x="10"><tspan id="SvgjsTspan1141" style="text-decoration:;">Cmac Addr : 0x3AFFF0</tspan></tspan></text></g></g><g id="SvgjsG1142" transform="translate(686,349.734375)"><path id="SvgjsPath1143" d="M 0 4Q 0 0 4 0L 241 0Q 245 0 245 4L 245 85Q 245 89 241 89L 4 89Q 0 89 0 85Z" stroke="rgba(50,50,50,1)" stroke-width="2" fill-opacity="1" fill="#ffffff"></path><g id="SvgjsG1144"><text id="SvgjsText1145" font-family="微软雅黑" text-anchor="middle" font-size="13px" width="225px" fill="#323232" font-weight="700" align="top" anchor="middle" family="微软雅黑" size="13px" weight="700" font-style="" opacity="1" y="-1.95" transform="rotate(0)"><tspan id="SvgjsTspan1146" dy="16" x="122.5"><tspan id="SvgjsTspan1147" style="text-decoration:;">HSM_Cmac.bin</tspan></tspan></text></g></g><g id="SvgjsG1148" transform="translate(686,372.734375)"><path id="SvgjsPath1149" d="M 0 4Q 0 0 4 0L 241 0Q 245 0 245 4L 245 65Q 245 69 241 69L 4 69Q 0 69 0 65Z" stroke="rgba(50,50,50,1)" stroke-width="2" fill-opacity="1" fill="#ffffff"></path><g id="SvgjsG1150"><text id="SvgjsText1151" font-family="微软雅黑" text-anchor="start" font-size="13px" width="225px" fill="#323232" font-weight="400" align="middle" anchor="start" family="微软雅黑" size="13px" weight="400" font-style="" opacity="1" y="16.55" transform="rotate(0)"><tspan id="SvgjsTspan1152" dy="16" x="10"><tspan id="SvgjsTspan1153" style="text-decoration:;">Addr :0x003B0000</tspan></tspan><tspan id="SvgjsTspan1154" dy="16" x="10"><tspan id="SvgjsTspan1155" style="text-decoration:;">Len : 0x40000</tspan></tspan></text></g></g><g id="SvgjsG1156"><path id="SvgjsPath1157" d="M554.1666666666666 241.734375L619.8690476190477 241.734375L619.8690476190477 97.23437499999994L686 97.23437499999994" stroke="#323232" stroke-width="2" fill="none" marker-end="url(#SvgjsMarker1158)"></path></g><g id="SvgjsG1160"><path id="SvgjsPath1161" d="M554.1666666666666 241.734375L619.8690476190477 241.734375L619.8690476190477 203.234375L686 203.234375" stroke="#323232" stroke-width="2" fill="none" marker-end="url(#SvgjsMarker1162)"></path></g><g id="SvgjsG1164"><path id="SvgjsPath1165" d="M554.1666666666666 241.734375L619.8690476190477 241.734375L619.8690476190477 301.234375L686 301.234375" stroke="#323232" stroke-width="2" fill="none" marker-end="url(#SvgjsMarker1166)"></path></g><g id="SvgjsG1168"><path id="SvgjsPath1169" d="M554.1666666666666 241.734375L619.8690476190477 241.734375L619.8690476190477 407.234375L686 407.234375" stroke="#323232" stroke-width="2" fill="none" marker-end="url(#SvgjsMarker1170)"></path></g><g id="SvgjsG1172" transform="translate(1067.8660669814526,25.012152777777764)"><path id="SvgjsPath1173" d="M 0 4Q 0 0 4 0L 262.9335963182116 0Q 266.9335963182116 0 266.9335963182116 4L 266.9335963182116 439Q 266.9335963182116 443 262.9335963182116 443L 4 443Q 0 443 0 439Z" stroke="rgba(50,50,50,1)" stroke-width="2" fill-opacity="1" fill="#99ffcc"></path><g id="SvgjsG1174"><text id="SvgjsText1175" font-family="微软雅黑" text-anchor="middle" font-size="13px" width="247px" fill="#323232" font-weight="700" align="top" anchor="middle" family="微软雅黑" size="13px" weight="700" font-style="" opacity="1" y="-1.95" transform="rotate(0)"><tspan id="SvgjsTspan1176" dy="16" x="133.5"><tspan id="SvgjsTspan1177" style="text-decoration:;"> </tspan></tspan><tspan id="SvgjsTspan1178" dy="16" x="133.5"><tspan id="SvgjsTspan1179" style="text-decoration:;">Firmware.hex</tspan></tspan></text></g></g><g id="SvgjsG1180" transform="translate(1069,398.78993055555543)"><path id="SvgjsPath1181" d="M 0 4Q 0 0 4 0L 169 0Q 173 0 173 4L 173 65Q 173 69 169 69L 4 69Q 0 69 0 65Z" stroke="rgba(50,50,50,1)" stroke-width="2" fill-opacity="1" fill="#8a8a8a"></path><g id="SvgjsG1182"><text id="SvgjsText1183" font-family="微软雅黑" text-anchor="middle" font-size="13px" width="153px" fill="#323232" font-weight="400" align="middle" anchor="middle" family="微软雅黑" size="13px" weight="400" font-style="" opacity="1" y="24.55" transform="rotate(0)"><tspan id="SvgjsTspan1184" dy="16" x="86.5"><tspan id="SvgjsTspan1185" style="text-decoration:;">BootManage Data</tspan></tspan></text></g></g><g id="SvgjsG1186" transform="translate(1069,361.9772941219028)"><path id="SvgjsPath1187" d="M 0 4Q 0 0 4 0L 169 0Q 173 0 173 4L 173 37Q 173 41 169 41L 4 41Q 0 41 0 37Z" stroke="rgba(50,50,50,1)" stroke-width="2" fill-opacity="1" fill="#8a8a8a"></path><g id="SvgjsG1188"><text id="SvgjsText1189" font-family="微软雅黑" text-anchor="middle" font-size="13px" width="153px" fill="#323232" font-weight="400" align="middle" anchor="middle" family="微软雅黑" size="13px" weight="400" font-style="" opacity="1" y="10.55" transform="rotate(0)"><tspan id="SvgjsTspan1190" dy="16" x="86.5"><tspan id="SvgjsTspan1191" style="text-decoration:;">BootManage CMAC</tspan></tspan></text></g></g><g id="SvgjsG1192" transform="translate(1069,293.56770833333337)"><path id="SvgjsPath1193" d="M 0 4Q 0 0 4 0L 169 0Q 173 0 173 4L 173 65Q 173 69 169 69L 4 69Q 0 69 0 65Z" stroke="rgba(50,50,50,1)" stroke-width="2" fill-opacity="1" fill="#b8b8b8"></path><g id="SvgjsG1194"><text id="SvgjsText1195" font-family="微软雅黑" text-anchor="middle" font-size="13px" width="153px" fill="#323232" font-weight="400" align="middle" anchor="middle" family="微软雅黑" size="13px" weight="400" font-style="" opacity="1" y="24.55" transform="rotate(0)"><tspan id="SvgjsTspan1196" dy="16" x="86.5"><tspan id="SvgjsTspan1197" style="text-decoration:;">FirmwareA Data</tspan></tspan></text></g></g><g id="SvgjsG1198" transform="translate(1069,258.3503089627135)"><path id="SvgjsPath1199" d="M 0 4Q 0 0 4 0L 169 0Q 173 0 173 4L 173 37Q 173 41 169 41L 4 41Q 0 41 0 37Z" stroke="rgba(50,50,50,1)" stroke-width="2" fill-opacity="1" fill="#b8b8b8"></path><g id="SvgjsG1200"><text id="SvgjsText1201" font-family="微软雅黑" text-anchor="middle" font-size="13px" width="153px" fill="#323232" font-weight="400" align="middle" anchor="middle" family="微软雅黑" size="13px" weight="400" font-style="" opacity="1" y="10.55" transform="rotate(0)"><tspan id="SvgjsTspan1202" dy="16" x="86.5"><tspan id="SvgjsTspan1203" style="text-decoration:;">FirmwareA CMAC</tspan></tspan></text></g></g><g id="SvgjsG1204" transform="translate(1069,154.734375)"><path id="SvgjsPath1205" d="M 0 4Q 0 0 4 0L 169 0Q 173 0 173 4L 173 65Q 173 69 169 69L 4 69Q 0 69 0 65Z" stroke="rgba(50,50,50,1)" stroke-width="2" fill-opacity="1" fill="#8a8a8a"></path><g id="SvgjsG1206"><text id="SvgjsText1207" font-family="微软雅黑" text-anchor="middle" font-size="13px" width="153px" fill="#323232" font-weight="400" align="middle" anchor="middle" family="微软雅黑" size="13px" weight="400" font-style="" opacity="1" y="24.55" transform="rotate(0)"><tspan id="SvgjsTspan1208" dy="16" x="86.5"><tspan id="SvgjsTspan1209" style="text-decoration:;">FirmwareB Data</tspan></tspan></text></g></g><g id="SvgjsG1210" transform="translate(1069,123.734375)"><path id="SvgjsPath1211" d="M 0 4Q 0 0 4 0L 169 0Q 173 0 173 4L 173 27Q 173 31 169 31L 4 31Q 0 31 0 27Z" stroke="rgba(50,50,50,1)" stroke-width="2" fill-opacity="1" fill="#8a8a8a"></path><g id="SvgjsG1212"><text id="SvgjsText1213" font-family="微软雅黑" text-anchor="middle" font-size="13px" width="153px" fill="#323232" font-weight="400" align="middle" anchor="middle" family="微软雅黑" size="13px" weight="400" font-style="" opacity="1" y="5.55" transform="rotate(0)"><tspan id="SvgjsTspan1214" dy="16" x="86.5"><tspan id="SvgjsTspan1215" style="text-decoration:;">FirmwareB CMAC</tspan></tspan></text></g></g><g id="SvgjsG1216" transform="translate(1069,219.88877050117497)"><path id="SvgjsPath1217" d="M 0 4Q 0 0 4 0L 169 0Q 173 0 173 4L 173 37Q 173 41 169 41L 4 41Q 0 41 0 37Z" stroke="rgba(50,50,50,1)" stroke-width="2" fill-opacity="1" fill="#ffffff"></path><g id="SvgjsG1218"><text id="SvgjsText1219" font-family="微软雅黑" text-anchor="middle" font-size="13px" width="153px" fill="#323232" font-weight="400" align="middle" anchor="middle" family="微软雅黑" size="13px" weight="400" font-style="" opacity="1" y="10.55" transform="rotate(0)"><tspan id="SvgjsTspan1220" dy="16" x="86.5"><tspan id="SvgjsTspan1221" style="text-decoration:;">reserved</tspan></tspan></text></g></g><g id="SvgjsG1222" transform="translate(1069,70.734375)"><path id="SvgjsPath1223" d="M 0 4Q 0 0 4 0L 169 0Q 173 0 173 4L 173 49Q 173 53 169 53L 4 53Q 0 53 0 49Z" stroke="rgba(50,50,50,1)" stroke-width="2" fill-opacity="1" fill="#e5e5e5"></path><g id="SvgjsG1224"><text id="SvgjsText1225" font-family="微软雅黑" text-anchor="middle" font-size="13px" width="153px" fill="#323232" font-weight="400" align="middle" anchor="middle" family="微软雅黑" size="13px" weight="400" font-style="" opacity="1" y="16.55" transform="rotate(0)"><tspan id="SvgjsTspan1226" dy="16" x="86.5"><tspan id="SvgjsTspan1227" style="text-decoration:;">HSM</tspan></tspan></text></g></g><g id="SvgjsG1228" transform="translate(1247.5,441.33199213443413)"><path id="SvgjsPath1229" d="M 0 0L 88 0L 88 41L 0 41Z" stroke="none" fill="none"></path><g id="SvgjsG1230"><text id="SvgjsText1231" font-family="微软雅黑" text-anchor="start" font-size="13px" width="88px" fill="#323232" font-weight="700" align="middle" anchor="start" family="微软雅黑" size="13px" weight="700" font-style="" opacity="1" y="10.55" transform="rotate(0)"><tspan id="SvgjsTspan1232" dy="16" x="0"><tspan id="SvgjsTspan1233" style="text-decoration:;">0000 0000</tspan></tspan></text></g></g><g id="SvgjsG1234" transform="translate(1247.5,386.734375)"><path id="SvgjsPath1235" d="M 0 0L 88 0L 88 41L 0 41Z" stroke="none" fill="none"></path><g id="SvgjsG1236"><text id="SvgjsText1237" font-family="微软雅黑" text-anchor="start" font-size="13px" width="88px" fill="#323232" font-weight="700" align="middle" anchor="start" family="微软雅黑" size="13px" weight="700" font-style="" opacity="1" y="10.55" transform="rotate(0)"><tspan id="SvgjsTspan1238" dy="16" x="0"><tspan id="SvgjsTspan1239" style="text-decoration:;">0000 1FFF0</tspan></tspan></text></g></g><g id="SvgjsG1240" transform="translate(1247.5,341.8223459758641)"><path id="SvgjsPath1241" d="M 0 0L 88 0L 88 41L 0 41Z" stroke="none" fill="none"></path><g id="SvgjsG1242"><text id="SvgjsText1243" font-family="微软雅黑" text-anchor="start" font-size="13px" width="88px" fill="#323232" font-weight="700" align="middle" anchor="start" family="微软雅黑" size="13px" weight="700" font-style="" opacity="1" y="10.55" transform="rotate(0)"><tspan id="SvgjsTspan1244" dy="16" x="0"><tspan id="SvgjsTspan1245" style="text-decoration:;">0002 0000</tspan></tspan></text></g></g><g id="SvgjsG1246" transform="translate(1247.5,280.734375)"><path id="SvgjsPath1247" d="M 0 0L 88 0L 88 41L 0 41Z" stroke="none" fill="none"></path><g id="SvgjsG1248"><text id="SvgjsText1249" font-family="微软雅黑" text-anchor="start" font-size="13px" width="88px" fill="#323232" font-weight="700" align="middle" anchor="start" family="微软雅黑" size="13px" weight="700" font-style="" opacity="1" y="10.55" transform="rotate(0)"><tspan id="SvgjsTspan1250" dy="16" x="0"><tspan id="SvgjsTspan1251" style="text-decoration:;">001D FFF0</tspan></tspan></text></g></g><g id="SvgjsG1252" transform="translate(1247.5,240.734375)"><path id="SvgjsPath1253" d="M 0 0L 88 0L 88 41L 0 41Z" stroke="none" fill="none"></path><g id="SvgjsG1254"><text id="SvgjsText1255" font-family="微软雅黑" text-anchor="start" font-size="13px" width="88px" fill="#323232" font-weight="700" align="middle" anchor="start" family="微软雅黑" size="13px" weight="700" font-style="" opacity="1" y="10.55" transform="rotate(0)"><tspan id="SvgjsTspan1256" dy="16" x="0"><tspan id="SvgjsTspan1257" style="text-decoration:;">001D FFF0</tspan></tspan></text></g></g><g id="SvgjsG1258" transform="translate(1247.5,199.36563924679197)"><path id="SvgjsPath1259" d="M 0 0L 88 0L 88 41L 0 41Z" stroke="none" fill="none"></path><g id="SvgjsG1260"><text id="SvgjsText1261" font-family="微软雅黑" text-anchor="start" font-size="13px" width="88px" fill="#323232" font-weight="700" align="middle" anchor="start" family="微软雅黑" size="13px" weight="700" font-style="" opacity="1" y="10.55" transform="rotate(0)"><tspan id="SvgjsTspan1262" dy="16" x="0"><tspan id="SvgjsTspan1263" style="text-decoration:;">0020 0000</tspan></tspan></text></g></g><g id="SvgjsG1264" transform="translate(1247.5,129.8473988653398)"><path id="SvgjsPath1265" d="M 0 0L 88 0L 88 41L 0 41Z" stroke="none" fill="none"></path><g id="SvgjsG1266"><text id="SvgjsText1267" font-family="微软雅黑" text-anchor="start" font-size="13px" width="88px" fill="#323232" font-weight="700" align="middle" anchor="start" family="微软雅黑" size="13px" weight="700" font-style="" opacity="1" y="10.55" transform="rotate(0)"><tspan id="SvgjsTspan1268" dy="16" x="0"><tspan id="SvgjsTspan1269" style="text-decoration:;">003A FFF0</tspan></tspan></text></g></g><g id="SvgjsG1270" transform="translate(1247.5,99.33186421711167)"><path id="SvgjsPath1271" d="M 0 0L 88 0L 88 41L 0 41Z" stroke="none" fill="none"></path><g id="SvgjsG1272"><text id="SvgjsText1273" font-family="微软雅黑" text-anchor="start" font-size="13px" width="88px" fill="#323232" font-weight="700" align="middle" anchor="start" family="微软雅黑" size="13px" weight="700" font-style="" opacity="1" y="10.55" transform="rotate(0)"><tspan id="SvgjsTspan1274" dy="16" x="0"><tspan id="SvgjsTspan1275" style="text-decoration:;">003B 0000</tspan></tspan></text></g></g><g id="SvgjsG1276" transform="translate(1247.5,48.34548611111106)"><path id="SvgjsPath1277" d="M 0 0L 88 0L 88 41L 0 41Z" stroke="none" fill="none"></path><g id="SvgjsG1278"><text id="SvgjsText1279" font-family="微软雅黑" text-anchor="start" font-size="13px" width="88px" fill="#323232" font-weight="700" align="middle" anchor="start" family="微软雅黑" size="13px" weight="700" font-style="" opacity="1" y="10.55" transform="rotate(0)"><tspan id="SvgjsTspan1280" dy="16" x="0"><tspan id="SvgjsTspan1281" style="text-decoration:;">003F FFFF</tspan></tspan></text></g></g><g id="SvgjsG1282"><path id="SvgjsPath1283" d="M931 97.234375L999.7023809523807 97.234375L999.7023809523807 240.38877050117497L1069 240.38877050117497" stroke="#323232" stroke-width="2" fill="none" marker-end="url(#SvgjsMarker1284)"></path></g><g id="SvgjsG1286"><path id="SvgjsPath1287" d="M931 203.234375L999.7023809523807 203.234375L999.7023809523807 240.38877050117497L1069 240.38877050117497" stroke="#323232" stroke-width="2" fill="none" marker-end="url(#SvgjsMarker1288)"></path></g><g id="SvgjsG1290"><path id="SvgjsPath1291" d="M931 301.234375L999.7023809523807 301.234375L999.7023809523807 240.38877050117497L1069 240.38877050117497" stroke="#323232" stroke-width="2" fill="none" marker-end="url(#SvgjsMarker1292)"></path></g><g id="SvgjsG1294"><path id="SvgjsPath1295" d="M931 407.234375L999.7023809523807 407.234375L999.7023809523807 240.38877050117497L1069 240.38877050117497" stroke="#323232" stroke-width="2" fill="none" marker-end="url(#SvgjsMarker1296)"></path></g><g id="SvgjsG1298"><path id="SvgjsPath1299" d="M1335.5 261.234375L1354.3035714285716 261.234375L1354.3035714285716 261.234375L1373.1071428571431 261.234375" stroke="#323232" stroke-width="2" fill="none" marker-end="url(#SvgjsMarker1300)"></path></g><g id="SvgjsG1302" transform="translate(1373.1071428571431,234.734375)"><path id="SvgjsPath1303" d="M 0 4Q 0 0 4 0L 141 0Q 145 0 145 4L 145 49Q 145 53 141 53L 4 53Q 0 53 0 49Z" stroke="rgba(50,50,50,1)" stroke-width="2" fill-opacity="1" fill="#ffffff"></path><g id="SvgjsG1304"><text id="SvgjsText1305" font-family="微软雅黑" text-anchor="middle" font-size="13px" width="125px" fill="#323232" font-weight="400" align="middle" anchor="middle" family="微软雅黑" size="13px" weight="400" font-style="" opacity="1" y="16.55" transform="rotate(0)"><tspan id="SvgjsTspan1306" dy="16" x="72.5"><tspan id="SvgjsTspan1307" style="text-decoration:;">downlode.bat</tspan></tspan></text></g></g><g id="SvgjsG1308"><path id="SvgjsPath1309" d="M1518.1071428571431 261.23437500000006L1549.9821428571431 261.23437500000006L1549.9821428571431 261.23437500000006L1581.8571428571431 261.23437500000006" stroke="#323232" stroke-width="2" fill="none" marker-end="url(#SvgjsMarker1310)"></path></g><g id="SvgjsG1312" transform="translate(1581.8571428571431,240.734375)"><path id="SvgjsPath1313" d="M 0 4Q 0 0 4 0L 93.5 0Q 97.5 0 97.5 4L 97.5 37Q 97.5 41 93.5 41L 4 41Q 0 41 0 37Z" stroke="rgba(50,50,50,1)" stroke-width="2" fill-opacity="1" fill="#ffffff"></path><g id="SvgjsG1314"><text id="SvgjsText1315" font-family="微软雅黑" text-anchor="middle" font-size="13px" width="78px" fill="#323232" font-weight="400" align="middle" anchor="middle" family="微软雅黑" size="13px" weight="400" font-style="" opacity="1" y="10.55" transform="rotate(0)"><tspan id="SvgjsTspan1316" dy="16" x="49"><tspan id="SvgjsTspan1317" style="text-decoration:;">E1</tspan></tspan></text></g></g><g id="SvgjsG1318"><path id="SvgjsPath1319" d="M1679.3571428571431 261.234375L1711.8571428571431 261.234375L1711.8571428571431 203.234375L1744.3571428571431 203.234375" stroke="#323232" stroke-width="2" fill="none" marker-end="url(#SvgjsMarker1320)"></path></g><g id="SvgjsG1322" transform="translate(1744.3571428571431,168.734375)"><path id="SvgjsPath1323" d="M 0 4Q 0 0 4 0L 102 0Q 106 0 106 4L 106 65Q 106 69 102 69L 4 69Q 0 69 0 65Z" stroke="rgba(50,50,50,1)" stroke-width="2" fill-opacity="1" fill="#ffffff"></path><g id="SvgjsG1324"><text id="SvgjsText1325" font-family="微软雅黑" text-anchor="middle" font-size="13px" width="86px" fill="#323232" font-weight="400" align="middle" anchor="middle" family="微软雅黑" size="13px" weight="400" font-style="" opacity="1" y="24.55" transform="rotate(0)"><tspan id="SvgjsTspan1326" dy="16" x="53"><tspan id="SvgjsTspan1327" style="text-decoration:;">擦除MCU配置</tspan></tspan></text></g></g><g id="SvgjsG1328"><path id="SvgjsPath1329" d="M1679.3571428571431 261.234375L1711.8571428571431 261.234375L1711.8571428571431 315.5493298219645L1744.3571428571431 315.5493298219645" stroke="#323232" stroke-width="2" fill="none" marker-end="url(#SvgjsMarker1330)"></path></g><g id="SvgjsG1332" transform="translate(1744.3571428571431,282.72272024135196)"><path id="SvgjsPath1333" d="M 0 4Q 0 0 4 0L 102 0Q 106 0 106 4L 106 65Q 106 69 102 69L 4 69Q 0 69 0 65Z" stroke="rgba(50,50,50,1)" stroke-width="2" fill-opacity="1" fill="#ffffff"></path><g id="SvgjsG1334"><text id="SvgjsText1335" font-family="微软雅黑" text-anchor="middle" font-size="13px" width="86px" fill="#323232" font-weight="400" align="middle" anchor="middle" family="微软雅黑" size="13px" weight="400" font-style="" opacity="1" y="16.55" transform="rotate(0)"><tspan id="SvgjsTspan1336" dy="16" x="53"><tspan id="SvgjsTspan1337" style="text-decoration:;">下载</tspan></tspan><tspan id="SvgjsTspan1338" dy="16" x="53"><tspan id="SvgjsTspan1339" style="text-decoration:;">Firmware.hex</tspan></tspan></text></g></g></svg>